<?xml version="1.0" encoding="UTF-8"?>
<svg id="Capa_1" xmlns="http://www.w3.org/2000/svg" version="1.1" viewBox="0 0 1920 1080">
  <!-- Generator: Adobe Illustrator 29.8.2, SVG Export Plug-In . SVG Version: 2.1.1 Build 3)  -->
  <defs>
    <style>
      .st0 {
        fill: #ff3c00;
      }

      .st1 {
        fill: #ccc;
      }
    </style>
  </defs>
  <rect class="st1" width="1920" height="1080"/>
  <rect class="st0" y="-1095.23" width="1920" height="1080"/>
  <g>
    <path d="M739.35-641.91h-32.79c-.93,0-1.68.75-1.68,1.68v28.06c0,.93-.75,1.68-1.68,1.68h-12.45c-.93,0-1.68.75-1.68,1.68v11.1c0,1.52-1.84,2.26-2.89,1.16-.26-.27-.53-.54-.79-.81-10.35-10.35-24.45-15.6-41.92-15.6s-31.57,5.25-41.92,15.6c-4.74,4.74-8.42,10.22-11.04,16.4-.66,1.56-2.95,1.33-3.22-.34-1.35-8.56-4.64-15.56-9.84-20.87-7.01-7.16-16.53-10.79-28.28-10.79s-20.71,3.62-28.41,10.78c-1.07,1-2.81.22-2.81-1.24v-5.39c0-.93-.75-1.68-1.68-1.68h-31.96c-.93,0-1.68.75-1.68,1.68v106.74c0,.93.75,1.68,1.68,1.68h32.79c.93,0,1.68-.75,1.68-1.68v-59.53c0-6.39,1.73-11.36,5.15-14.78,3.47-3.47,7.69-5.15,12.93-5.15,10.23,0,15,5.09,15,16.02v63.43c0,.93.75,1.68,1.68,1.68h32.79c.93,0,1.68-.75,1.68-1.68v-25.73c0-1.81,2.45-2.34,3.21-.69,2.56,5.51,6,10.44,10.33,14.77,10.49,10.49,24.59,15.8,41.92,15.8s31.43-5.32,41.92-15.8c10.35-10.35,15.6-24.38,15.6-41.72,0-9.41-1.53-17.83-4.56-25.22-.45-1.1.36-2.31,1.56-2.31h5.22c.93,0,1.68.75,1.68,1.68v49.26c0,11.42,3.23,19.81,9.6,24.92,6.23,5,16.34,7.54,30.04,7.54,6.09,0,11.17-.28,15.08-.84l.32-.05c.83-.12,1.45-.83,1.45-1.67v-24.52c0-.93-.75-1.68-1.68-1.68h-8.59c-5.05,0-7.27-.85-8.24-1.56-1.21-.89-1.83-2.78-1.83-5.63v-45.77c0-.93.75-1.68,1.68-1.68h16.97c.93,0,1.68-.75,1.68-1.68v-24.16c0-.93-.75-1.68-1.68-1.68h-16.97c-.93,0-1.68-.75-1.68-1.68v-28.06c0-.93-.75-1.68-1.68-1.68ZM658.89-534.51c-3.59,4.58-8.64,6.81-15.43,6.81s-12.05-2.23-15.64-6.81c-3.66-4.67-5.52-11.71-5.52-20.92s1.86-16.25,5.52-20.92c3.59-4.59,8.71-6.81,15.64-6.81s11.84,2.23,15.43,6.81c3.66,4.67,5.52,11.71,5.52,20.92s-1.86,16.24-5.52,20.92Z"/>
    <path d="M1437.39-584.64v-24.16c0-.93-.75-1.68-1.68-1.68h-16.97c-.93,0-1.68-.75-1.68-1.68v-28.06c0-.93-.75-1.68-1.68-1.68h-32.79c-.93,0-1.68.75-1.68,1.68v28.06c0,.93-.75,1.68-1.68,1.68h-12.45c-.93,0-1.68.75-1.68,1.68v11.1c0,1.52-1.84,2.26-2.89,1.16-.26-.27-.53-.54-.79-.81-10.35-10.35-24.45-15.6-41.92-15.6s-31.57,5.25-41.92,15.6c-4.42,4.42-7.91,9.49-10.48,15.17-.62,1.36-2.58,1.29-3.1-.11-2.08-5.6-4.89-10.59-8.44-14.91h-.01c-8.72-10.45-20.66-15.75-35.47-15.75-10.58,0-19.42,3.04-26.4,9.05-1.09.94-2.78.17-2.78-1.27v-35.06c0-.93-.75-1.68-1.68-1.68h-32.79c-.93,0-1.68.75-1.68,1.68v56.74c0,1.82-2.46,2.33-3.22.69-2.51-5.46-5.89-10.32-10.12-14.55-10.35-10.35-24.45-15.6-41.92-15.6s-31.57,5.25-41.92,15.6c-.4.4-.78.8-1.17,1.21-1.05,1.13-2.93.41-2.93-1.13v-12.73c0-.89-.69-1.62-1.57-1.68l-.35-.02c-5.58-.37-6.74-.42-7.12-.42-10.81,0-19.23,3.45-25.19,10.28-1.03,1.18-2.96.47-2.96-1.09v-5.86c0-.93-.75-1.68-1.68-1.68h-31.96c-.93,0-1.68.75-1.68,1.68v106.74c0,.93.75,1.68,1.68,1.68h32.79c.93,0,1.68-.75,1.68-1.68v-49.67c0-17.97,8.53-26.71,26.09-26.71h0c1.14,0,1.95,1.1,1.6,2.18-2.02,6.31-3.04,13.26-3.04,20.83,0,17.19,5.32,31.23,15.8,41.72,10.49,10.49,24.59,15.8,41.92,15.8s31.43-5.32,41.92-15.8c4.23-4.23,7.61-9.08,10.12-14.52.76-1.65,3.22-1.13,3.22.69v25.48c0,.93.75,1.68,1.68,1.68h31.96c.93,0,1.68-.75,1.68-1.68v-4.36c0-1.46,1.73-2.23,2.81-1.24,7.08,6.48,16.19,9.75,27.18,9.75,14.81,0,26.75-5.29,35.48-15.75,3.57-4.35,6.4-9.36,8.48-15,.52-1.4,2.47-1.48,3.09-.12,2.57,5.63,6.05,10.66,10.45,15.06,10.49,10.49,24.59,15.8,41.92,15.8s31.43-5.32,41.92-15.8c10.35-10.35,15.6-24.38,15.6-41.72,0-9.41-1.53-17.83-4.56-25.22-.45-1.1.36-2.31,1.56-2.31h5.22c.93,0,1.68.75,1.68,1.68v49.26c0,11.42,3.23,19.81,9.6,24.92,6.24,5,16.34,7.54,30.05,7.54,6.09,0,11.17-.28,15.08-.84l.32-.05c.83-.12,1.45-.83,1.45-1.67v-24.52c0-.93-.75-1.68-1.68-1.68h-8.59c-5.05,0-7.27-.85-8.24-1.56-1.21-.89-1.83-2.78-1.83-5.63v-45.77c0-.93.75-1.68,1.68-1.68h16.97c.93,0,1.68-.75,1.68-1.68ZM1303.83-576.34c3.59-4.59,8.71-6.81,15.64-6.81s11.84,2.23,15.43,6.81c3.66,4.67,5.52,11.71,5.52,20.92s-1.86,16.25-5.52,20.92c-3.59,4.58-8.64,6.81-15.43,6.81s-12.04-2.23-15.64-6.81c-3.66-4.67-5.52-11.71-5.52-20.92s1.86-16.25,5.52-20.92ZM1231.76-556.25c0,9.36-1.87,16.58-5.54,21.46-3.59,4.77-8.5,7.09-15,7.09-13.96,0-20.75-9.07-20.75-27.73s6.79-27.73,20.75-27.73c5.08,0,20.54,0,20.54,26.91ZM1083.83-576.34c3.59-4.59,8.71-6.81,15.64-6.81s11.84,2.23,15.43,6.81c3.66,4.67,5.52,11.71,5.52,20.92s-1.86,16.24-5.52,20.92c-3.59,4.58-8.64,6.81-15.43,6.81s-12.04-2.23-15.64-6.81c-3.66-4.67-5.52-11.71-5.52-20.92s1.86-16.25,5.52-20.92Z"/>
    <path d="M930.2-478.22c-1.89,1.88-4.28.7-6.55.59-3.78-.17-8.87-.05-12.54-.76-3.46-.66-3.91-2.1-6.41-3.41s-2.87-.13-4.23-3.25c-2.19-5.01-3.93-10.81-5.72-16-3.13-9.1-6.24-18.38-8.72-27.72-1.68-6.34-2.61-13.58-4.56-19.73-1.07-3.38-3.59-1.11-5.78-.43-7.16,2.23-13.82,4.95-20.85,7.19-2.4.77-3.31-.19-4.51,2.74s-1.67,6.35-2.51,9.4c-3.64,13.14-7.61,26.22-10.44,39.55-.58,2.73-.73,5.16-1,7.87-.37,3.71-1.86,5.68-5.72,5.95-3.4.24-12.59-1.06-16.06-1.93-3.08-.77-3.93-2.03-6.15-3.9-1.06-.9-2.36-1.07-2.76-2.62s-.76-5.3-.57-6.79c.21-1.63,1.09-3.47,1.47-5.07,2.14-8.99,4.21-17.95,6.53-26.87.36-1.4,1.73-2.99.37-4.1-.69-.56-2.51.08-3.39.38-3.69,1.27-10.11,4.7-13.81,4.43-2.49-.18-9.95-4.58-12.34-6.12-3.18-2.05-7.29-5.06-9.74-8.01-4.45-5.35,4.85-6.75,8.17-7.96,4.77-1.73,9.48-3.71,14.28-5.35,7.83-2.67,17.08-4.75,24.59-7.89,1.15-.48,1.87-.79,2.47-1.97,5.43-20.02,10.68-40.15,14.69-60.52,3.29-16.71,5.49-34.37,9.95-50.79.56-2.05,1.58-5.77,2.47-7.58.52-1.07,1.32-1.86,2.48-2.19s3.85-.63,5.14-.7c5.94-.33,11.7.83,17.51,1.91,3.56.66,6.78.98,8.6,4.49,1.03,1.99,10.93,43.53,14.28,61.16,1.5,7.86,2.85,17.67,5.19,25.18.56,1.79.79,2.82,2.98,2.51s6.46-1.86,8.87-2.58c2.85-.86,12.21-4.41,14.5-4.08,1.31.19,1.83.83,3.57.65,2.98-.3,6.43-1.35,9.58-1.35,1.65,0,3.5.75,5.14.88,3.08.25,6.06.06,9.12,1.16.95.34,1.78,1.4,2.75,1.92,1.78.95,4.32,1.76,6.08,2.8.82.48,1.26,1.54,2.02,2.19,1.57,1.33,4.17,1.39,2.11,4.44-1.14,1.68-7.69,2.94-9.87,3.68-11.7,3.99-23.43,7.92-35.19,11.78-4.05,1.33-9.49,2.5-13.26,4.27-1.22.57-1.56,1.02-1.52,2.45.05,1.71.9,5.08,1.28,6.91,3.58,17.35,8.8,35.08,14.5,51.84,1.49,4.38,5.82,13.47,5.2,17.82-.17,1.17-.86,2.7-1.7,3.55ZM867.72-606.3c-.57.4-1.45,6.16-1.72,7.27-2.05,8.55-4.39,17.02-6.43,25.59-.29,2.8,2.51,1.77,4.11,1.29,2.53-.77,7.29-2.25,9.56-3.29,1.42-.65,1.84-1.33,1.65-2.91-.65-5.23-2.66-11.67-3.81-16.99-.6-2.81-.96-5.94-1.62-8.66-.16-.67-.74-3-1.74-2.3Z"/>
    <path d="M932.21-637.55c1.49,1.43,2.24,3.21,2.24,5.33s-.75,3.84-2.24,5.28c-1.51,1.45-3.34,2.18-5.48,2.18s-4-.73-5.51-2.18c-1.49-1.43-2.24-3.19-2.24-5.28s.75-3.9,2.24-5.33c1.51-1.45,3.35-2.18,5.51-2.18s3.97.73,5.48,2.18ZM930.94-628.09c1.12-1.08,1.68-2.46,1.68-4.13s-.56-3.07-1.68-4.19c-1.16-1.1-2.56-1.65-4.21-1.65s-3.08.55-4.21,1.65c-1.14,1.12-1.71,2.52-1.71,4.19s.57,3.05,1.71,4.13c1.14,1.1,2.54,1.65,4.21,1.65s3.06-.55,4.21-1.65ZM929.97-629.45c.04.45.15.77.32.94h-2.12c-.14-.26-.22-.57-.24-.94l-.06-.8c-.02-.37-.09-.62-.22-.75s-.36-.19-.69-.19h-1.27v2.68h-2v-7.57h3.57c.88,0,1.57.2,2.06.59s.74.94.74,1.65c0,.79-.35,1.36-1.06,1.71.59.28.89.83.91,1.65l.06,1.03ZM925.7-632.75h1.36c.61,0,.91-.28.91-.83s-.31-.83-.94-.83h-1.33v1.65Z"/>
  </g>
  <g>
    <path d="M739.35,453.32h-32.79c-.93,0-1.68.75-1.68,1.68v28.06c0,.93-.75,1.68-1.68,1.68h-12.45c-.93,0-1.68.75-1.68,1.68v11.1c0,1.52-1.84,2.26-2.89,1.16-.26-.27-.53-.54-.79-.81-10.35-10.35-24.45-15.6-41.92-15.6s-31.57,5.25-41.92,15.6c-4.74,4.74-8.42,10.22-11.04,16.4-.66,1.56-2.95,1.33-3.22-.34-1.35-8.56-4.64-15.56-9.84-20.87-7.01-7.16-16.53-10.79-28.28-10.79s-20.71,3.62-28.41,10.78c-1.07,1-2.81.22-2.81-1.24v-5.39c0-.93-.75-1.68-1.68-1.68h-31.96c-.93,0-1.68.75-1.68,1.68v106.74c0,.93.75,1.68,1.68,1.68h32.79c.93,0,1.68-.75,1.68-1.68v-59.53c0-6.39,1.73-11.36,5.15-14.78,3.47-3.47,7.69-5.15,12.93-5.15,10.23,0,15,5.09,15,16.02v63.43c0,.93.75,1.68,1.68,1.68h32.79c.93,0,1.68-.75,1.68-1.68v-25.73c0-1.81,2.45-2.34,3.21-.69,2.56,5.51,6,10.44,10.33,14.77,10.49,10.49,24.59,15.8,41.92,15.8s31.43-5.32,41.92-15.8c10.35-10.35,15.6-24.38,15.6-41.72,0-9.41-1.53-17.83-4.56-25.22-.45-1.1.36-2.31,1.56-2.31h5.22c.93,0,1.68.75,1.68,1.68v49.26c0,11.42,3.23,19.81,9.6,24.92,6.23,5,16.34,7.54,30.04,7.54,6.09,0,11.17-.28,15.08-.84l.32-.05c.83-.12,1.45-.83,1.45-1.67v-24.52c0-.93-.75-1.68-1.68-1.68h-8.59c-5.05,0-7.27-.85-8.24-1.56-1.21-.89-1.83-2.78-1.83-5.63v-45.77c0-.93.75-1.68,1.68-1.68h16.97c.93,0,1.68-.75,1.68-1.68v-24.16c0-.93-.75-1.68-1.68-1.68h-16.97c-.93,0-1.68-.75-1.68-1.68v-28.06c0-.93-.75-1.68-1.68-1.68ZM658.89,560.73c-3.59,4.58-8.64,6.81-15.43,6.81s-12.05-2.23-15.64-6.81c-3.66-4.67-5.52-11.71-5.52-20.92s1.86-16.25,5.52-20.92c3.59-4.59,8.71-6.81,15.64-6.81s11.84,2.23,15.43,6.81c3.66,4.67,5.52,11.71,5.52,20.92s-1.86,16.24-5.52,20.92Z"/>
    <path d="M1437.39,510.6v-24.16c0-.93-.75-1.68-1.68-1.68h-16.97c-.93,0-1.68-.75-1.68-1.68v-28.06c0-.93-.75-1.68-1.68-1.68h-32.79c-.93,0-1.68.75-1.68,1.68v28.06c0,.93-.75,1.68-1.68,1.68h-12.45c-.93,0-1.68.75-1.68,1.68v11.1c0,1.52-1.84,2.26-2.89,1.16-.26-.27-.53-.54-.79-.81-10.35-10.35-24.45-15.6-41.92-15.6s-31.57,5.25-41.92,15.6c-4.42,4.42-7.91,9.49-10.48,15.17-.62,1.36-2.58,1.29-3.1-.11-2.08-5.6-4.89-10.59-8.44-14.91h-.01c-8.72-10.45-20.66-15.75-35.47-15.75-10.58,0-19.42,3.04-26.4,9.05-1.09.94-2.78.17-2.78-1.27v-35.06c0-.93-.75-1.68-1.68-1.68h-32.79c-.93,0-1.68.75-1.68,1.68v56.74c0,1.82-2.46,2.33-3.22.69-2.51-5.46-5.89-10.32-10.12-14.55-10.35-10.35-24.45-15.6-41.92-15.6s-31.57,5.25-41.92,15.6c-.4.4-.78.8-1.17,1.21-1.05,1.13-2.93.41-2.93-1.13v-12.73c0-.89-.69-1.62-1.57-1.68l-.35-.02c-5.58-.37-6.74-.42-7.12-.42-10.81,0-19.23,3.45-25.19,10.28-1.03,1.18-2.96.47-2.96-1.09v-5.86c0-.93-.75-1.68-1.68-1.68h-31.96c-.93,0-1.68.75-1.68,1.68v106.74c0,.93.75,1.68,1.68,1.68h32.79c.93,0,1.68-.75,1.68-1.68v-49.67c0-17.97,8.53-26.71,26.09-26.71h0c1.14,0,1.95,1.1,1.6,2.18-2.02,6.31-3.04,13.26-3.04,20.83,0,17.19,5.32,31.23,15.8,41.72,10.49,10.49,24.59,15.8,41.92,15.8s31.43-5.32,41.92-15.8c4.23-4.23,7.61-9.08,10.12-14.52.76-1.65,3.22-1.13,3.22.69v25.48c0,.93.75,1.68,1.68,1.68h31.96c.93,0,1.68-.75,1.68-1.68v-4.36c0-1.46,1.73-2.23,2.81-1.24,7.08,6.48,16.19,9.75,27.18,9.75,14.81,0,26.75-5.29,35.48-15.75,3.57-4.35,6.4-9.36,8.48-15,.52-1.4,2.47-1.48,3.09-.12,2.57,5.63,6.05,10.66,10.45,15.06,10.49,10.49,24.59,15.8,41.92,15.8s31.43-5.32,41.92-15.8c10.35-10.35,15.6-24.38,15.6-41.72,0-9.41-1.53-17.83-4.56-25.22-.45-1.1.36-2.31,1.56-2.31h5.22c.93,0,1.68.75,1.68,1.68v49.26c0,11.42,3.23,19.81,9.6,24.92,6.24,5,16.34,7.54,30.05,7.54,6.09,0,11.17-.28,15.08-.84l.32-.05c.83-.12,1.45-.83,1.45-1.67v-24.52c0-.93-.75-1.68-1.68-1.68h-8.59c-5.05,0-7.27-.85-8.24-1.56-1.21-.89-1.83-2.78-1.83-5.63v-45.77c0-.93.75-1.68,1.68-1.68h16.97c.93,0,1.68-.75,1.68-1.68ZM1303.83,518.89c3.59-4.59,8.71-6.81,15.64-6.81s11.84,2.23,15.43,6.81c3.66,4.67,5.52,11.71,5.52,20.92s-1.86,16.25-5.52,20.92c-3.59,4.58-8.64,6.81-15.43,6.81s-12.04-2.23-15.64-6.81c-3.66-4.67-5.52-11.71-5.52-20.92s1.86-16.25,5.52-20.92ZM1231.76,538.99c0,9.36-1.87,16.58-5.54,21.46-3.59,4.77-8.5,7.09-15,7.09-13.96,0-20.75-9.07-20.75-27.73s6.79-27.73,20.75-27.73c5.08,0,20.54,0,20.54,26.91ZM1083.83,518.89c3.59-4.59,8.71-6.81,15.64-6.81s11.84,2.23,15.43,6.81c3.66,4.67,5.52,11.71,5.52,20.92s-1.86,16.24-5.52,20.92c-3.59,4.58-8.64,6.81-15.43,6.81s-12.04-2.23-15.64-6.81c-3.66-4.67-5.52-11.71-5.52-20.92s1.86-16.25,5.52-20.92Z"/>
    <path d="M930.2,617.01c-1.89,1.88-4.28.7-6.55.59-3.78-.17-8.87-.05-12.54-.76-3.46-.66-3.91-2.1-6.41-3.41s-2.87-.13-4.23-3.25c-2.19-5.01-3.93-10.81-5.72-16-3.13-9.1-6.24-18.38-8.72-27.72-1.68-6.34-2.61-13.58-4.56-19.73-1.07-3.38-3.59-1.11-5.78-.43-7.16,2.23-13.82,4.95-20.85,7.19-2.4.77-3.31-.19-4.51,2.74s-1.67,6.35-2.51,9.4c-3.64,13.14-7.61,26.22-10.44,39.55-.58,2.73-.73,5.16-1,7.87-.37,3.71-1.86,5.68-5.72,5.95-3.4.24-12.59-1.06-16.06-1.93-3.08-.77-3.93-2.03-6.15-3.9-1.06-.9-2.36-1.07-2.76-2.62s-.76-5.3-.57-6.79c.21-1.63,1.09-3.47,1.47-5.07,2.14-8.99,4.21-17.95,6.53-26.87.36-1.4,1.73-2.99.37-4.1-.69-.56-2.51.08-3.39.38-3.69,1.27-10.11,4.7-13.81,4.43-2.49-.18-9.95-4.58-12.34-6.12-3.18-2.05-7.29-5.06-9.74-8.01-4.45-5.35,4.85-6.75,8.17-7.96,4.77-1.73,9.48-3.71,14.28-5.35,7.83-2.67,17.08-4.75,24.59-7.89,1.15-.48,1.87-.79,2.47-1.97,5.43-20.02,10.68-40.15,14.69-60.52,3.29-16.71,5.49-34.37,9.95-50.79.56-2.05,1.58-5.77,2.47-7.58.52-1.07,1.32-1.86,2.48-2.19s3.85-.63,5.14-.7c5.94-.33,11.7.83,17.51,1.91,3.56.66,6.78.98,8.6,4.49,1.03,1.99,10.93,43.53,14.28,61.16,1.5,7.86,2.85,17.67,5.19,25.18.56,1.79.79,2.82,2.98,2.51s6.46-1.86,8.87-2.58c2.85-.86,12.21-4.41,14.5-4.08,1.31.19,1.83.83,3.57.65,2.98-.3,6.43-1.35,9.58-1.35,1.65,0,3.5.75,5.14.88,3.08.25,6.06.06,9.12,1.16.95.34,1.78,1.4,2.75,1.92,1.78.95,4.32,1.76,6.08,2.8.82.48,1.26,1.54,2.02,2.19,1.57,1.33,4.17,1.39,2.11,4.44-1.14,1.68-7.69,2.94-9.87,3.68-11.7,3.99-23.43,7.92-35.19,11.78-4.05,1.33-9.49,2.5-13.26,4.27-1.22.57-1.56,1.02-1.52,2.45.05,1.71.9,5.08,1.28,6.91,3.58,17.35,8.8,35.08,14.5,51.84,1.49,4.38,5.82,13.47,5.2,17.82-.17,1.17-.86,2.7-1.7,3.55ZM867.72,488.93c-.57.4-1.45,6.16-1.72,7.27-2.05,8.55-4.39,17.02-6.43,25.59-.29,2.8,2.51,1.77,4.11,1.29,2.53-.77,7.29-2.25,9.56-3.29,1.42-.65,1.84-1.33,1.65-2.91-.65-5.23-2.66-11.67-3.81-16.99-.6-2.81-.96-5.94-1.62-8.66-.16-.67-.74-3-1.74-2.3Z"/>
    <path d="M932.21,457.68c1.49,1.43,2.24,3.21,2.24,5.33s-.75,3.84-2.24,5.28c-1.51,1.45-3.34,2.18-5.48,2.18s-4-.73-5.51-2.18c-1.49-1.43-2.24-3.19-2.24-5.28s.75-3.9,2.24-5.33c1.51-1.45,3.35-2.18,5.51-2.18s3.97.73,5.48,2.18ZM930.94,467.14c1.12-1.08,1.68-2.46,1.68-4.13s-.56-3.07-1.68-4.19c-1.16-1.1-2.56-1.65-4.21-1.65s-3.08.55-4.21,1.65c-1.14,1.12-1.71,2.52-1.71,4.19s.57,3.05,1.71,4.13c1.14,1.1,2.54,1.65,4.21,1.65s3.06-.55,4.21-1.65ZM929.97,465.79c.04.45.15.77.32.94h-2.12c-.14-.26-.22-.57-.24-.94l-.06-.8c-.02-.37-.09-.62-.22-.75s-.36-.19-.69-.19h-1.27v2.68h-2v-7.57h3.57c.88,0,1.57.2,2.06.59s.74.94.74,1.65c0,.79-.35,1.36-1.06,1.71.59.28.89.83.91,1.65l.06,1.03ZM925.7,462.49h1.36c.61,0,.91-.28.91-.83s-.31-.83-.94-.83h-1.33v1.65Z"/>
  </g>
</svg>